<?xml version="1.0" encoding="UTF-8"?>
<svg id="Layer_1" data-name="Layer 1" xmlns="http://www.w3.org/2000/svg" viewBox="0 0 350.27 152.99">
  <defs>
    <style>
      .cls-1 {
        fill: #fff;
      }

      .cls-2 {
        fill: #fff;
      }
    </style>
  </defs>
  <g>
    <path class="cls-2" d="M142.02,27.49c-2.15,0-3.94-.81-5.37-2.42-1.25-1.37-1.88-2.99-1.88-4.84,0-2.12.81-3.91,2.42-5.37,1.37-1.22,2.99-1.84,4.84-1.84,2.15,0,3.94.79,5.37,2.37,1.25,1.37,1.88,2.99,1.88,4.84,0,2.15-.81,3.94-2.42,5.37-1.37,1.25-2.99,1.88-4.84,1.88ZM142.02,14.54c-1.58,0-2.92.55-4.01,1.66-1.09,1.1-1.63,2.45-1.63,4.03s.54,2.97,1.63,4.08c1.09,1.1,2.43,1.66,4.01,1.66s2.93-.55,4.03-1.66,1.66-2.46,1.66-4.08-.55-2.89-1.66-4.01c-1.1-1.12-2.45-1.68-4.03-1.68ZM141.88,20.86h-.85v2.69h-1.48v-7.03h2.51c1.7,0,2.55.7,2.55,2.1,0,.96-.42,1.61-1.25,1.97l1.57,2.96h-1.75l-1.3-2.69ZM141.03,17.68v1.97h.85c.84,0,1.25-.31,1.25-.94,0-.69-.42-1.03-1.25-1.03h-.85Z"/>
    <path class="cls-2" d="M92.51,2.74C37.61-11.91-14.08,34.37,3.49,90.57c4.36,14,13.04,25.18,24.21,34.41.06.34-.01.69-.09,1.03-1.1,6.08-5.32,14.33-5.81,20.1-.89,10.44,13.28,6.31,19.12,4.71,7.52-2.07,19.57-7.17,25.58-12.09,5.7-4.65,2.74-12.87-4.5-11.86-2.12.3-5.31,2.8-7.33,3.84-4.95,2.58-10.06,5.15-15.51,6.43.83-4.82,3.08-9.61,4.03-14.36,1.15-5.65-1.33-5.84-5.01-8.65-27.96-21.35-31.7-61.57-4.62-85.43,20.2-17.79,55.47-18.36,75.63-.3,29.97,26.83,13.8,76.23-28.65,72.8-10.57-.86-21.43-7.36-24.96-17.44-1.69-.1-3.4-.24-5.08-.43-3.62-.4-7.22-.96-10.79-1.69,1.23,8.42,5.05,16.38,11.94,22.55,21.52,19.22,59.98,14.3,76.73-8.92,25.85-35.79,5.01-81.6-35.89-92.53ZM81.69,31.21c-18.15-1.29-32.18,10.46-38.59,25.62-.37.89-.73,1.79-1.05,2.71-.33.9-.62,1.81-.89,2.73-3.53-.79-7.03-1.76-10.46-2.93-.72-.24-1.45-.37-2.18-.37-2.81,0-5.44,1.78-6.38,4.59-1.2,3.53.69,7.37,4.22,8.56,4.23,1.43,8.54,2.63,12.91,3.57,3.92.85,7.89,1.49,11.86,1.92,1.25.13,4.68.52,8.41.59.77.01,1.94.07,1.94.07,5.39.17,12.31.1,18.91-1.21,1.31-.27,2.6-.57,3.86-.95,2.65-.75,5.21-1.76,7.5-3.08,20.66-11.86,13.53-40.17-10.06-41.83ZM85.65,60.16c-1.25.95-2.58,1.69-4.02,2.28-1,.42-2.07.76-3.14,1.03-1.94.5-3.97.8-6.05.98-.09,0-1.38.11-2.11.14-.09,0-5.29.29-9.67.16-.95-.03-1.88-.07-2.81-.13-.55-.04-1.09-.11-1.61-.17.26-.92.57-1.84.95-2.74.37-.95.8-1.88,1.29-2.78,4.39-8.26,12.94-14.88,22.59-13.86,8.08.85,11.32,9.97,4.58,15.09Z"/>
  </g>
  <g>
    <g>
      <path class="cls-1" d="M183.9,41.39v25.01c0,13.7-10.28,26.83-25.41,27.73l-.19-11.31c8.47.06,13.96-6.34,13.96-16.42v-25.01s11.64,0,11.64,0Z"/>
      <path class="cls-1" d="M316.61,41.39v20.1c0,4.65-1.42,7.11-3.88,7.11s-3.82-2.33-3.82-7.11v-20.1h-11.63v20.1c0,4.65-1.36,7.11-3.82,7.11s-3.82-2.33-3.82-7.11v-20.1h-11.63v16.23c0,5.82-3.94,10.99-9.7,10.99h-18.33l-1.16-.64c-.13-.07-.97-.65-2.65-1.94l13.06-13.96-.26-1.75-.06-.13-.52-2.07c-.26-.77-.84-2.07-2.07-4.01-2.07-3.3-6.53-6.59-13.12-6.59h-11.77c-4.14,0-7.95,1.49-9.96,3.55-1.42,1.49-2.2,2.52-2.52,3.23-1.16,2.58-1.62,4.59-1.68,5.82-.07.78-.07,1.16-.07,1.36v1.36l13.58,13.32-2.65,2c-.84.39-1.04.45-.78.45h-15.73c-2.65,0-4.78-.64-7.11-2.39-.45-.39-2.07-1.81-2.07-4.2V22.97h-11.64v39.05c0,4.27,2.26,8.14,6.79,11.51,3.36,2.46,8.66,4.14,14.03,4.14h16.05c3.17,0,6.72-1.62,10.28-4.4l.58-.45c2.13,1.68,4.14,2.84,6.01,3.75,1.55.78,3.36,1.1,4.59,1.1h19.17c5.24,0,10.54-1.94,14.03-4.91,2.26,2.71,6.6,4.91,11.12,4.91,3.75,0,7.31-1.49,9.7-3.43,2.33,1.94,5.75,3.43,9.57,3.43,8.98,0,15.52-7.63,15.52-16.16v-20.1h-11.64ZM239.13,58.52l-.78.77-.97-.84-5.17-5.17-3.23-3.17c.91-2.84,1.94-3.55,3.94-3.55h10.28c2.13,0,3.04,1.55,3.81,3.55-2.13,2.39-5.04,5.43-7.89,8.41Z"/>
      <path class="cls-1" d="M293.34,21.8c-3.98,0-7.2,3.22-7.2,7.2s3.22,7.2,7.2,7.2,7.2-3.22,7.2-7.2-3.22-7.2-7.2-7.2ZM312.64,21.8c-3.98,0-7.2,3.22-7.2,7.2s3.22,7.2,7.2,7.2,7.2-3.22,7.2-7.2-3.22-7.2-7.2-7.2ZM302.91,8.42c-3.98,0-7.2,3.22-7.2,7.2s3.22,7.2,7.2,7.2,7.2-3.22,7.2-7.2-3.22-7.2-7.2-7.2Z"/>
      <path class="cls-1" d="M348.68,22.97v54.69h-11.64V22.97h11.64ZM342.39,87.61c0,1.05.75,1.57,2.24,1.57h4.04v4.83h-13.48v-4.83h2.3c-.11-.38-.17-.9-.17-1.57,0-1.69.56-3.17,1.69-4.44,1.12-1.27,2.67-1.91,4.66-1.91h5v4.83h-4.04c-1.5,0-2.24.5-2.24,1.52Z"/>
    </g>
    <g>
      <path class="cls-1" d="M160.9,133.57c-.54-1.33-.94-2.83-1.2-4.49-.26-1.66-.39-3.28-.39-4.85,0-1.11.07-2.24.2-3.4.13-1.16.34-2.28.65-3.36.3-1.08.72-2.09,1.25-3.04.53-.95,1.19-1.77,2-2.48.56-.5,1.21-.9,1.97-1.18.76-.28,1.56-.42,2.41-.42h12.58c1.29.08,2.42.38,3.41.91.99.52,1.82,1.2,2.49,2.03.67.83,1.18,1.77,1.54,2.83.36,1.06.54,2.15.53,3.28-.02,1.03-.17,2.04-.45,3.02-.28.99-.76,1.93-1.45,2.84-.61.89-1.45,1.61-2.52,2.16-1.07.55-2.26.83-3.57.83h-12.58c.07.42.17.89.28,1.39.11.5.26,1,.44,1.48.19.48.42.92.7,1.3.28.38.63.67,1.04.85h14.79l.1,5.56h-17.33c-.83,0-1.59-.15-2.29-.45s-1.33-.7-1.9-1.2c-.57-.49-1.08-1.06-1.54-1.69s-.84-1.27-1.15-1.92ZM177.87,122.66c.46-.04.79-.12,1-.24.21-.12.45-.3.71-.55.17-.26.33-.61.46-1.06.13-.44.2-.92.22-1.42,0-.52-.06-1.02-.2-1.5-.14-.47-.33-.86-.57-1.16-.23-.28-.45-.49-.65-.62-.2-.13-.53-.2-.97-.2h-7.62c-.16,0-.27.01-.34.05-.07.03-.19.1-.37.2-.42.34-.77.78-1.04,1.33-.27.54-.47,1.12-.62,1.72-.15.6-.24,1.21-.3,1.81-.06.6-.09,1.15-.11,1.63h10.4Z"/>
      <path class="cls-1" d="M195.21,138.83l-.1-5.56h15.12c.36,0,.67-.11.92-.33.25-.22.45-.49.6-.8.15-.31.25-.65.32-1.01.07-.36.1-.69.09-.97,0-.3-.03-.63-.1-.98-.07-.35-.19-.68-.34-.97-.15-.29-.35-.53-.58-.73-.24-.19-.52-.29-.87-.29h-9.68c-1.27,0-2.44-.33-3.5-1-.6-.4-1.09-.87-1.49-1.41-.4-.53-.73-1.11-.99-1.74-.26-.63-.45-1.27-.55-1.93-.11-.67-.16-1.32-.15-1.97-.01-1.33.18-2.6.59-3.8.4-1.2,1.04-2.27,1.9-3.22.59-.56,1.24-1,1.98-1.32s1.47-.47,2.22-.47h16.94l-.02,5.56h-14.43c-.17.06-.33.24-.48.53-.15.29-.28.65-.38,1.07-.11.42-.18.88-.23,1.36-.05.48-.04.93.02,1.33.06.4.18.74.35,1.01.17.27.41.41.74.41h9.65c.87,0,1.68.15,2.44.44s1.44.69,2.04,1.21,1.12,1.11,1.56,1.8.76,1.41.97,2.18c.18.46.31.94.37,1.44s.09.98.08,1.47c0,.81-.09,1.6-.26,2.37-.18.78-.43,1.51-.78,2.19-.34.69-.77,1.31-1.27,1.88-.51.56-1.09,1.04-1.75,1.42-.52.26-1.05.46-1.59.6-.54.14-1.1.21-1.69.21h-17.66Z"/>
      <path class="cls-1" d="M246.08,138.83c-.04-2.38-.06-4.55-.06-6.5,0-.83,0-1.65-.01-2.48,0-.83,0-1.59,0-2.28,0-.7,0-1.29,0-1.78,0-.49,0-.83.02-1.01-.01-.3-.04-.72-.09-1.25s-.11-1.11-.19-1.74-.19-1.27-.33-1.94c-.14-.67-.31-1.27-.52-1.81s-.46-.99-.75-1.35c-.29-.35-.64-.55-1.03-.59h-9.28l.11,22.74h-8.07l-.07-43.97h8.07l-.05,15.67h11.8c.85,0,1.64.16,2.38.47.74.31,1.38.71,1.93,1.2.86.77,1.56,1.66,2.09,2.69.53,1.03.95,2.11,1.25,3.24.3,1.13.51,2.27.62,3.42.11,1.15.17,2.23.16,3.24,0,.71,0,1.44,0,2.21,0,.77,0,1.55,0,2.34,0,.8.02,1.58.02,2.36,0,.78,0,1.52.01,2.22,0,1.65.02,3.3.02,4.93h-8.04Z"/>
      <path class="cls-1" d="M261.51,135.75c-.66-.91-1.14-1.93-1.43-3.06-.29-1.13-.43-2.22-.41-3.27,0-1.01.14-2.01.42-3.01.28-1,.76-1.94,1.45-2.83.3-.44.68-.85,1.11-1.22.44-.37.92-.69,1.45-.95.53-.26,1.09-.46,1.68-.6.59-.14,1.21-.2,1.86-.18h12.58c-.05-.38-.12-.79-.21-1.21s-.22-.84-.37-1.24c-.15-.4-.33-.78-.53-1.13-.2-.35-.45-.65-.73-.89-.14-.12-.25-.19-.31-.21-.06-.02-.16-.03-.28-.03h-14.4l.02-5.56h16.85c.85,0,1.61.15,2.3.44.69.29,1.31.68,1.87,1.17.56.48,1.05,1.04,1.49,1.66.43.63.82,1.27,1.16,1.93.54,1.33.94,2.78,1.2,4.34.27,1.56.4,3.13.39,4.7.01,1.09-.05,2.23-.17,3.42-.12,1.19-.34,2.35-.64,3.48-.3,1.13-.72,2.19-1.25,3.17s-1.21,1.83-2.04,2.51c-.56.49-1.2.88-1.91,1.19-.71.31-1.49.47-2.34.47h-12.67c-1.27,0-2.46-.3-3.56-.89-1.1-.59-1.96-1.33-2.58-2.19ZM270.1,126.19c-.46,0-.81.06-1.03.18-.22.12-.45.31-.68.58-.17.28-.33.64-.46,1.07s-.21.9-.22,1.41c0,.52.06,1.03.21,1.51.15.48.33.87.57,1.15.23.28.45.48.67.6.21.12.53.18.95.18h7.62c.12,0,.22,0,.31-.03s.22-.09.4-.21c.42-.34.77-.78,1.04-1.32.27-.53.47-1.1.62-1.71.15-.6.24-1.21.3-1.81.06-.6.09-1.14.11-1.6h-10.4Z"/>
      <path class="cls-1" d="M296.07,135.75c-.67-.91-1.14-1.93-1.43-3.06-.29-1.13-.43-2.22-.41-3.27,0-1.01.14-2.01.42-3.01.28-1,.76-1.94,1.45-2.83.3-.44.68-.85,1.11-1.22.44-.37.92-.69,1.45-.95.53-.26,1.09-.46,1.68-.6.59-.14,1.21-.2,1.86-.18h12.58c-.05-.38-.12-.79-.21-1.21s-.22-.84-.37-1.24c-.15-.4-.33-.78-.53-1.13-.2-.35-.45-.65-.73-.89-.14-.12-.25-.19-.31-.21s-.16-.03-.28-.03h-14.4l.02-5.56h16.85c.85,0,1.61.15,2.3.44.69.29,1.31.68,1.87,1.17s1.06,1.04,1.49,1.66.82,1.27,1.16,1.93c.54,1.33.94,2.78,1.2,4.34.27,1.56.4,3.13.39,4.7.01,1.09-.05,2.23-.17,3.42-.12,1.19-.34,2.35-.64,3.48-.31,1.13-.72,2.19-1.25,3.17s-1.21,1.83-2.04,2.51c-.56.49-1.2.88-1.91,1.19-.71.31-1.49.47-2.34.47h-12.67c-1.27,0-2.46-.3-3.56-.89-1.1-.59-1.96-1.33-2.58-2.19ZM304.67,126.19c-.46,0-.81.06-1.03.18-.22.12-.45.31-.69.58-.17.28-.33.64-.46,1.07s-.21.9-.22,1.41c0,.52.06,1.03.21,1.51.15.48.33.87.56,1.15.23.28.45.48.67.6.21.12.53.18.95.18h7.62c.12,0,.22,0,.31-.03s.22-.09.4-.21c.42-.34.77-.78,1.04-1.32.27-.53.47-1.1.62-1.71.14-.6.24-1.21.3-1.81.06-.6.09-1.14.11-1.6h-10.4Z"/>
      <path class="cls-1" d="M341.68,117.77c-.11-.27-.24-.54-.4-.79-.16-.25-.34-.47-.54-.67s-.44-.31-.71-.35h-3.15l.07,22.86h-8.07l-.06-28.49h13.7c1.07,0,2.02.24,2.85.71.83.47,1.56,1.09,2.19,1.86s1.17,1.63,1.61,2.6c.44.97.81,1.95,1.11,2.93h-8.32c-.07-.18-.16-.41-.27-.68Z"/>
    </g>
  </g>
</svg>
