<svg width="477" height="216" viewBox="0 0 477 216" fill="none" xmlns="http://www.w3.org/2000/svg">
<g clip-path="url(#clip0_998_663)">
<path d="M231.34 186.977C230.551 185.016 229.964 182.831 229.58 180.384C229.195 177.937 229.013 175.571 229.013 173.265C229.013 171.647 229.115 169.969 229.317 168.27C229.499 166.571 229.822 164.933 230.267 163.335C230.712 161.757 231.319 160.261 232.108 158.865C232.877 157.47 233.868 156.256 235.041 155.225C235.85 154.476 236.821 153.91 237.934 153.485C239.046 153.081 240.219 152.858 241.453 152.858H259.921C261.802 152.98 263.481 153.425 264.937 154.193C266.393 154.962 267.607 155.953 268.598 157.166C269.589 158.38 270.338 159.755 270.864 161.312C271.39 162.87 271.653 164.467 271.653 166.126C271.612 167.643 271.41 169.119 270.985 170.555C270.58 172.011 269.872 173.386 268.861 174.721C267.971 176.016 266.737 177.088 265.16 177.897C263.582 178.706 261.842 179.11 259.921 179.11H241.453C241.554 179.737 241.696 180.404 241.858 181.153C242.02 181.901 242.242 182.609 242.505 183.337C242.768 184.045 243.112 184.692 243.537 185.238C243.941 185.804 244.467 186.209 245.074 186.472H266.778L266.94 194.643H241.494C240.28 194.643 239.167 194.42 238.136 193.975C237.104 193.53 236.174 192.944 235.345 192.216C234.515 191.488 233.747 190.658 233.079 189.728C232.412 188.798 231.845 187.867 231.38 186.917L231.34 186.977ZM256.26 170.96C256.927 170.899 257.412 170.777 257.736 170.595C258.04 170.413 258.383 170.151 258.768 169.786C259.031 169.402 259.253 168.876 259.455 168.229C259.658 167.582 259.759 166.874 259.779 166.146C259.779 165.377 259.698 164.649 259.476 163.942C259.273 163.254 258.99 162.667 258.646 162.243C258.302 161.838 257.979 161.535 257.696 161.333C257.392 161.13 256.927 161.049 256.26 161.049H245.074C244.831 161.049 244.669 161.07 244.568 161.11C244.467 161.151 244.285 161.252 244.022 161.393C243.395 161.899 242.889 162.546 242.505 163.355C242.121 164.164 241.817 164.993 241.595 165.883C241.372 166.773 241.231 167.663 241.15 168.553C241.069 169.443 241.008 170.231 240.988 170.96H256.26Z" fill="white"/>
<path d="M298.676 163.8C298.514 163.395 298.332 163.011 298.09 162.647C297.847 162.283 297.604 161.96 297.301 161.676C296.997 161.393 296.653 161.231 296.249 161.171H291.637L291.738 194.724H279.885L279.784 152.919H299.89C301.468 152.919 302.843 153.263 304.077 153.971C305.311 154.679 306.363 155.569 307.293 156.701C308.223 157.834 309.012 159.108 309.66 160.524C310.307 161.939 310.853 163.375 311.278 164.831H299.06C298.959 164.569 298.818 164.225 298.656 163.84L298.676 163.8Z" fill="white"/>
<path d="M318.6 194.703L318.438 186.533H340.628C341.153 186.533 341.619 186.371 341.983 186.047C342.347 185.724 342.65 185.339 342.873 184.874C343.095 184.409 343.237 183.924 343.338 183.377C343.439 182.852 343.48 182.366 343.459 181.962C343.459 181.517 343.419 181.031 343.318 180.526C343.217 180 343.055 179.535 342.832 179.11C342.61 178.685 342.327 178.321 341.983 178.038C341.639 177.755 341.214 177.613 340.708 177.613H326.509C324.648 177.613 322.929 177.128 321.371 176.157C320.501 175.571 319.773 174.883 319.187 174.094C318.6 173.306 318.115 172.456 317.73 171.546C317.346 170.636 317.083 169.685 316.921 168.715C316.759 167.744 316.699 166.773 316.699 165.822C316.678 163.861 316.962 162.02 317.548 160.261C318.135 158.501 319.065 156.924 320.34 155.528C321.209 154.699 322.16 154.052 323.232 153.607C324.304 153.162 325.396 152.919 326.489 152.919H351.348V161.09H330.15C329.907 161.171 329.664 161.434 329.442 161.858C329.219 162.283 329.037 162.809 328.876 163.436C328.714 164.063 328.613 164.73 328.532 165.438C328.471 166.146 328.471 166.793 328.572 167.4C328.673 168.007 328.835 168.492 329.078 168.897C329.321 169.301 329.685 169.503 330.17 169.503H344.329C345.603 169.503 346.797 169.726 347.909 170.151C349.022 170.575 350.013 171.162 350.903 171.93C351.793 172.679 352.541 173.569 353.189 174.58C353.816 175.591 354.301 176.643 354.625 177.775C354.888 178.463 355.07 179.151 355.171 179.879C355.272 180.607 355.313 181.315 355.292 182.022C355.292 183.216 355.171 184.369 354.908 185.501C354.645 186.634 354.261 187.706 353.775 188.717C353.27 189.728 352.643 190.638 351.914 191.467C351.186 192.297 350.316 192.984 349.346 193.551C348.577 193.935 347.808 194.238 347.019 194.44C346.231 194.643 345.401 194.744 344.552 194.744H318.62L318.6 194.703Z" fill="white"/>
<path d="M366.195 190.173C365.224 188.838 364.516 187.342 364.091 185.683C363.666 184.025 363.464 182.427 363.484 180.89C363.484 179.414 363.687 177.937 364.111 176.481C364.516 175.025 365.224 173.629 366.235 172.335C366.68 171.688 367.226 171.081 367.874 170.535C368.521 169.989 369.229 169.524 369.998 169.139C370.766 168.755 371.596 168.452 372.465 168.249C373.335 168.047 374.245 167.946 375.196 167.987H393.664C393.603 167.42 393.481 166.834 393.36 166.207C393.219 165.58 393.036 164.973 392.814 164.387C392.591 163.8 392.329 163.234 392.025 162.728C391.722 162.202 391.358 161.778 390.953 161.414C390.751 161.232 390.589 161.13 390.508 161.11C390.427 161.09 390.286 161.07 390.104 161.07H368.966V152.899H393.724C394.958 152.899 396.091 153.121 397.102 153.546C398.114 153.971 399.024 154.537 399.853 155.265C400.682 155.973 401.411 156.782 402.038 157.712C402.665 158.623 403.231 159.573 403.737 160.564C404.526 162.526 405.112 164.649 405.497 166.935C405.881 169.22 406.083 171.526 406.063 173.832C406.063 175.429 406.002 177.108 405.82 178.847C405.638 180.587 405.335 182.285 404.869 183.944C404.424 185.602 403.797 187.16 403.029 188.596C402.24 190.052 401.249 191.265 400.035 192.276C399.206 192.984 398.275 193.571 397.244 194.036C396.192 194.501 395.059 194.724 393.805 194.724H375.196C373.335 194.724 371.596 194.279 369.977 193.409C368.359 192.539 367.105 191.467 366.195 190.193V190.173ZM378.817 176.157C378.129 176.157 377.644 176.238 377.32 176.42C376.996 176.602 376.652 176.885 376.309 177.27C376.046 177.674 375.823 178.2 375.621 178.847C375.419 179.494 375.317 180.182 375.297 180.91C375.297 181.679 375.378 182.427 375.601 183.135C375.823 183.843 376.086 184.409 376.43 184.814C376.774 185.238 377.097 185.521 377.401 185.703C377.704 185.885 378.19 185.966 378.796 185.966H389.982C390.164 185.966 390.306 185.966 390.447 185.926C390.569 185.906 390.771 185.784 391.034 185.623C391.661 185.117 392.167 184.47 392.551 183.701C392.935 182.912 393.259 182.083 393.461 181.193C393.664 180.303 393.825 179.414 393.906 178.524C393.987 177.634 394.048 176.845 394.068 176.178H378.796L378.817 176.157Z" fill="white"/>
<path d="M416.945 190.173C415.974 188.838 415.266 187.342 414.841 185.683C414.417 184.025 414.214 182.427 414.235 180.89C414.235 179.414 414.437 177.937 414.862 176.481C415.266 175.025 415.974 173.629 416.986 172.335C417.431 171.688 417.977 171.081 418.624 170.535C419.271 169.989 419.979 169.524 420.748 169.139C421.516 168.755 422.346 168.452 423.216 168.249C424.085 168.047 424.996 167.946 425.946 167.987H444.414C444.353 167.42 444.232 166.834 444.11 166.207C443.969 165.58 443.787 164.973 443.564 164.387C443.342 163.8 443.079 163.234 442.775 162.728C442.472 162.202 442.108 161.778 441.703 161.414C441.501 161.232 441.339 161.13 441.258 161.11C441.177 161.09 441.036 161.07 440.854 161.07H419.716V152.899H444.474C445.708 152.899 446.841 153.121 447.852 153.546C448.864 153.971 449.774 154.537 450.603 155.265C451.433 155.973 452.161 156.782 452.788 157.712C453.415 158.623 453.981 159.573 454.487 160.564C455.276 162.526 455.862 164.649 456.247 166.935C456.631 169.22 456.833 171.526 456.813 173.832C456.813 175.429 456.752 177.108 456.57 178.847C456.388 180.587 456.085 182.285 455.62 183.944C455.175 185.602 454.548 187.16 453.779 188.596C452.99 190.052 451.999 191.265 450.785 192.276C449.956 192.984 449.026 193.571 447.994 194.036C446.942 194.501 445.809 194.724 444.555 194.724H425.946C424.085 194.724 422.346 194.279 420.728 193.409C419.109 192.539 417.855 191.467 416.945 190.193V190.173ZM429.567 176.157C428.879 176.157 428.394 176.238 428.07 176.42C427.747 176.602 427.403 176.885 427.059 177.27C426.796 177.674 426.573 178.2 426.371 178.847C426.169 179.494 426.068 180.182 426.047 180.91C426.047 181.679 426.128 182.427 426.351 183.135C426.573 183.843 426.836 184.409 427.18 184.814C427.524 185.238 427.848 185.521 428.151 185.703C428.454 185.885 428.94 185.966 429.547 185.966H440.732C440.914 185.966 441.056 185.966 441.198 185.926C441.319 185.906 441.521 185.784 441.784 185.623C442.411 185.117 442.917 184.47 443.301 183.701C443.686 182.912 444.009 182.083 444.212 181.193C444.414 180.303 444.576 179.414 444.657 178.524C444.737 177.634 444.798 176.845 444.818 176.178H429.547L429.567 176.157Z" fill="white"/>
<path d="M476.858 133.928L476.96 194.703H465.106L465.005 133.928H476.858Z" fill="white"/>
<path d="M464.378 111.378C462.902 113.036 462.173 114.978 462.173 117.182C462.173 118.072 462.254 118.739 462.396 119.245H459.382V125.555H477V119.245H471.721C469.759 119.245 468.788 118.557 468.788 117.182C468.788 115.807 469.759 115.2 471.721 115.2H477V108.89H470.467C467.877 108.89 465.835 109.719 464.378 111.378Z" fill="white"/>
<path d="M477 32.6226H462.012V101.306H477V32.6226Z" fill="white"/>
<path d="M434.887 93.4383C434.887 103.955 426.331 112.51 415.812 112.51V127.497C434.604 127.497 449.875 112.207 449.875 93.4383V53.8383H434.887V93.4383Z" fill="white"/>
<path d="M272.462 98.1506C272.462 105.998 266.07 112.389 258.222 112.389C250.373 112.389 243.982 105.998 243.982 98.1506V80.2518H228.993V98.1506C228.993 114.27 242.1 127.375 258.222 127.375C274.343 127.375 287.45 114.27 287.45 98.1506V32.6226H272.462V98.1506Z" fill="white"/>
<path d="M422.831 82.5573V57.6203H407.843V82.5573C407.843 86.7641 404.424 90.1618 400.237 90.1618C396.05 90.1618 392.632 86.7439 392.632 82.5573V57.6203H377.644V82.5573C377.644 86.7641 374.225 90.1618 370.038 90.1618C365.851 90.1618 362.433 86.7439 362.433 82.5573V57.6203H347.444V58.2068V81.7888C347.444 86.3798 343.722 90.1012 339.131 90.1012H322.16C317.568 90.1012 313.847 86.3798 313.847 81.7888V32.6023H298.858V81.7888C298.858 94.6517 309.316 105.108 322.18 105.108H339.151C345.138 105.108 350.6 102.823 354.726 99.1012C358.771 102.843 364.152 105.169 370.079 105.169C376.005 105.169 381.183 102.944 385.188 99.3236C389.193 102.944 394.493 105.169 400.298 105.169C412.758 105.169 422.912 95.036 422.912 82.5573H422.831Z" fill="white"/>
<path d="M200.533 38.8112C197.499 38.8112 194.971 37.6787 192.948 35.3933C191.168 33.4517 190.298 31.1865 190.298 28.5573C190.298 25.5641 191.431 23.036 193.717 20.973C195.659 19.2539 197.924 18.3843 200.554 18.3843C203.588 18.3843 206.116 19.4966 208.139 21.7416C209.919 23.6832 210.789 25.9483 210.789 28.5775C210.789 31.6112 209.656 34.1393 207.37 36.1618C205.428 37.9416 203.163 38.8112 200.533 38.8112ZM200.533 20.5281C198.308 20.5281 196.407 21.3169 194.87 22.8742C193.332 24.4315 192.564 26.3326 192.564 28.5573C192.564 30.782 193.332 32.7438 194.87 34.3214C196.407 35.8787 198.288 36.6674 200.533 36.6674C202.779 36.6674 204.66 35.8787 206.217 34.3214C207.775 32.764 208.564 30.8427 208.564 28.5573C208.564 26.2719 207.775 24.4719 206.217 22.8944C204.66 21.3169 202.758 20.5281 200.533 20.5281ZM200.351 29.4472H199.158V33.2494H197.075V23.3191H200.614C203.021 23.3191 204.215 24.3101 204.215 26.2921C204.215 27.6472 203.628 28.5775 202.435 29.0832L204.64 33.2494H202.172L200.331 29.4472H200.351ZM199.138 24.9573V27.7483H200.331C201.504 27.7483 202.111 27.3034 202.111 26.4135C202.111 25.4427 201.525 24.9573 200.331 24.9573H199.138Z" fill="white"/>
<path d="M130.628 3.86294C53.0967 -16.8067 -19.8834 48.5191 4.93549 127.881C11.0846 147.64 23.3423 163.436 39.1196 176.461C39.2005 176.946 39.0994 177.431 38.9983 177.917C37.4408 186.512 31.4737 198.142 30.786 206.292C29.5319 221.036 49.5367 215.211 57.7894 212.926C68.4087 210.014 85.4199 202.793 93.9153 195.856C101.966 189.303 97.7788 177.694 87.564 179.11C84.5703 179.535 80.0596 183.054 77.2076 184.53C70.2292 188.171 63.008 191.811 55.3014 193.611C56.4746 186.816 59.6503 180.04 60.9853 173.346C62.6035 165.357 59.1042 165.094 53.9058 161.13C14.4221 130.996 9.14277 74.2045 47.3926 40.5101C75.9131 15.391 125.733 14.582 154.193 40.0854C196.508 77.9663 173.672 147.721 113.738 142.867C98.8103 141.654 83.4781 132.472 78.4819 118.234C76.0951 118.092 73.6881 117.89 71.3012 117.627C66.204 117.061 61.1067 116.272 56.0701 115.24C57.8096 127.133 63.2103 138.378 72.9194 147.074C103.301 174.216 157.611 167.258 181.277 134.474C217.787 83.9326 188.357 19.2742 130.587 3.84272L130.628 3.86294ZM115.356 44.0697C89.7283 42.2495 69.9258 58.8337 60.864 80.2517C60.338 81.5056 59.8324 82.7798 59.3874 84.0742C58.9221 85.3483 58.5176 86.6225 58.1333 87.9169C53.1574 86.8045 48.2017 85.4292 43.3673 83.791C42.356 83.4472 41.3244 83.2652 40.2928 83.2652C36.3282 83.2652 32.6064 85.7731 31.2714 89.7371C29.5723 94.7124 32.2423 100.153 37.2182 101.831C43.1853 103.854 49.2737 105.533 55.443 106.867C60.9651 108.061 66.5883 108.971 72.1912 109.578C73.951 109.76 78.7853 110.306 84.0647 110.407C85.1569 110.427 86.7953 110.508 86.7953 110.508C94.421 110.751 104.171 110.649 113.495 108.809C115.336 108.425 117.157 108 118.937 107.474C122.679 106.422 126.299 104.987 129.536 103.126C158.703 86.3798 148.63 46.4158 115.336 44.0697H115.356ZM120.939 84.9438C119.179 86.2787 117.298 87.3304 115.275 88.1596C113.859 88.7461 112.363 89.2315 110.846 89.6158C108.115 90.3236 105.243 90.7483 102.289 90.991C102.168 90.991 100.348 91.1528 99.316 91.1933C99.1947 91.1933 91.8522 91.5978 85.6626 91.4158C84.3276 91.3753 83.0128 91.3146 81.6981 91.2337C80.9294 91.1731 80.1608 91.0719 79.4326 90.991C79.7967 89.6967 80.2417 88.4023 80.7676 87.1281C81.2935 85.7933 81.9003 84.4787 82.5881 83.2045C88.7776 71.5349 100.853 62.2113 114.486 63.6472C125.895 64.8405 130.466 77.7236 120.939 84.9641V84.9438Z" fill="white"/>
</g>
<defs>
<clipPath id="clip0_998_663">
<rect width="477" height="216" fill="white"/>
</clipPath>
</defs>
</svg>
